<svg width="62" height="62" viewBox="0 0 62 62" fill="none" xmlns="http://www.w3.org/2000/svg">
<g filter="url(#filter0_di_219_1257)">
<circle cx="31" cy="27" r="21" fill="#FF0000"/>
</g>
<g filter="url(#filter1_d_219_1257)">
<path d="M22 17H41" stroke="white" stroke-width="1.5" stroke-linecap="round"/>
</g>
<path d="M31 21C34.771 21 36.657 21 37.828 22.1134C39 23.2258 39 25.0176 39 28.6V32.4C39 35.9824 39 37.7741 37.828 38.8866C36.657 40 34.771 40 31 40C27.229 40 25.343 40 24.172 38.8866C23 37.7741 23 35.9824 23 32.4V28.6C23 25.0176 23 23.2258 24.172 22.1134C25.343 21 27.229 21 31 21Z" stroke="white" stroke-width="1.5"/>
<path opacity="0.5" d="M27 28.6V24.8M27 32.4V30.975M33 21V40" stroke="white" stroke-width="1.5" stroke-linecap="round"/>
<defs>
<filter id="filter0_di_219_1257" x="0" y="0" width="62" height="62" filterUnits="userSpaceOnUse" color-interpolation-filters="sRGB">
<feFlood flood-opacity="0" result="BackgroundImageFix"/>
<feColorMatrix in="SourceAlpha" type="matrix" values="0 0 0 0 0 0 0 0 0 0 0 0 0 0 0 0 0 0 127 0" result="hardAlpha"/>
<feOffset dy="4"/>
<feGaussianBlur stdDeviation="5"/>
<feComposite in2="hardAlpha" operator="out"/>
<feColorMatrix type="matrix" values="0 0 0 0 0 0 0 0 0 0 0 0 0 0 0 0 0 0 0.25 0"/>
<feBlend mode="normal" in2="BackgroundImageFix" result="effect1_dropShadow_219_1257"/>
<feBlend mode="normal" in="SourceGraphic" in2="effect1_dropShadow_219_1257" result="shape"/>
<feColorMatrix in="SourceAlpha" type="matrix" values="0 0 0 0 0 0 0 0 0 0 0 0 0 0 0 0 0 0 127 0" result="hardAlpha"/>
<feOffset dy="4"/>
<feGaussianBlur stdDeviation="2"/>
<feComposite in2="hardAlpha" operator="arithmetic" k2="-1" k3="1"/>
<feColorMatrix type="matrix" values="0 0 0 0 0 0 0 0 0 0 0 0 0 0 0 0 0 0 0.25 0"/>
<feBlend mode="normal" in2="shape" result="effect2_innerShadow_219_1257"/>
</filter>
<filter id="filter1_d_219_1257" x="11.25" y="10.25" width="40.5" height="21.5" filterUnits="userSpaceOnUse" color-interpolation-filters="sRGB">
<feFlood flood-opacity="0" result="BackgroundImageFix"/>
<feColorMatrix in="SourceAlpha" type="matrix" values="0 0 0 0 0 0 0 0 0 0 0 0 0 0 0 0 0 0 127 0" result="hardAlpha"/>
<feOffset dy="4"/>
<feGaussianBlur stdDeviation="5"/>
<feComposite in2="hardAlpha" operator="out"/>
<feColorMatrix type="matrix" values="0 0 0 0 0 0 0 0 0 0 0 0 0 0 0 0 0 0 0.25 0"/>
<feBlend mode="normal" in2="BackgroundImageFix" result="effect1_dropShadow_219_1257"/>
<feBlend mode="normal" in="SourceGraphic" in2="effect1_dropShadow_219_1257" result="shape"/>
</filter>
</defs>
</svg>
