<svg width="60" height="60" viewBox="0 0 60 60" fill="none" xmlns="http://www.w3.org/2000/svg">
<mask id="mask0_13_2509" style="mask-type:luminance" maskUnits="userSpaceOnUse" x="4" y="3" width="52" height="54">
<path d="M29.9999 5L36.5661 9.79L44.6949 9.775L47.1911 17.51L53.7761 22.275L51.2499 30L53.7761 37.725L47.1911 42.49L44.6949 50.225L36.5661 50.21L29.9999 55L23.4336 50.21L15.3049 50.225L12.8086 42.49L6.22363 37.725L8.74988 30L6.22363 22.275L12.8086 17.51L15.3049 9.775L23.4336 9.79L29.9999 5Z" fill="white" stroke="white" stroke-width="4" stroke-linecap="round" stroke-linejoin="round"/>
<path d="M21.25 30L27.5 36.25L40 23.75" stroke="black" stroke-width="4" stroke-linecap="round" stroke-linejoin="round"/>
</mask>
<g mask="url(#mask0_13_2509)">
<path d="M0 0H60V60H0V0Z" fill="#FF0000"/>
</g>
</svg>
