<svg width="24" height="24" viewBox="0 0 24 24" fill="none" xmlns="http://www.w3.org/2000/svg">
<path d="M24 12.2665C24 11.2799 23.9183 10.5599 23.7415 9.8132H12.2449V14.2665H18.9931C18.8571 15.3732 18.1225 17.0399 16.4898 18.1598L16.4669 18.3089L20.1019 21.0686L20.3537 21.0932C22.6666 18.9998 24 15.9198 24 12.2665Z" fill="#4285F4"/>
<path d="M12.2441 24C15.5502 24 18.3265 22.9332 20.3537 21.0932L16.4898 18.1598C15.4558 18.8665 14.0672 19.3599 12.2441 19.3599C9.00609 19.3599 6.25782 17.2666 5.27814 14.3732L5.13454 14.3852L1.35481 17.2519L1.30539 17.3866C3.31896 21.3066 7.45501 24 12.2441 24Z" fill="#34A853"/>
<path d="M5.27814 14.3732C5.01964 13.6266 4.87075 12.8266 4.87075 12C4.87075 11.1732 5.02036 10.3733 5.26525 9.62662L5.25841 9.4676L1.43131 6.55488L1.30609 6.61325C0.476195 8.23994 0 10.0666 0 12C0 13.9333 0.475491 15.7599 1.30539 17.3866L5.27814 14.3732Z" fill="#FBBC05"/>
<path d="M12.2442 4.63997C14.5435 4.63997 16.0945 5.6133 16.9789 6.42669L20.4347 3.12C18.3123 1.18667 15.5503 0 12.2442 0C7.45504 0 3.31968 2.69328 1.30609 6.61325L5.26525 9.62662C6.25854 6.7333 9.00613 4.63997 12.2442 4.63997Z" fill="#EB4335"/>
</svg>
