<svg width="22" height="26" viewBox="0 0 22 26" fill="none" xmlns="http://www.w3.org/2000/svg">
<path d="M1 1H20.8261M6.21739 13.1043V9.13913M6.21739 17.0696V15.5826M12.4783 5.17391V25M10.3913 5.17391C14.3263 5.17391 16.2943 5.17391 17.5162 6.33572C18.7391 7.49654 18.7391 9.36614 18.7391 13.1043V17.0696C18.7391 20.8078 18.7391 22.6774 17.5162 23.8382C16.2943 25 14.3263 25 10.3913 25C6.45635 25 4.48835 25 3.26644 23.8382C2.04348 22.6774 2.04348 20.8078 2.04348 17.0696V13.1043C2.04348 9.36614 2.04348 7.49654 3.26644 6.33572C4.48835 5.17391 6.45635 5.17391 10.3913 5.17391Z" stroke="black" stroke-width="1.5" stroke-linecap="round"/>
</svg>
