<svg width="14" height="14" viewBox="0 0 14 14" fill="none" xmlns="http://www.w3.org/2000/svg">
<path d="M11.5 4.75H9.25V2.2525C9.24802 1.72201 9.03641 1.21382 8.6613 0.838701C8.28618 0.463587 7.77799 0.251976 7.2475 0.25H2.2525C1.72201 0.251976 1.21382 0.463587 0.838701 0.838701C0.463587 1.21382 0.251976 1.72201 0.25 2.2525V7.2475C0.251976 7.77799 0.463587 8.28618 0.838701 8.6613C1.21382 9.03641 1.72201 9.24802 2.2525 9.25H4.75V11.5C4.75 12.0967 4.98705 12.669 5.40901 13.091C5.83097 13.5129 6.40326 13.75 7 13.75H11.5C12.0967 13.75 12.669 13.5129 13.091 13.091C13.5129 12.669 13.75 12.0967 13.75 11.5V7C13.75 6.40326 13.5129 5.83097 13.091 5.40901C12.669 4.98705 12.0967 4.75 11.5 4.75ZM4.75 7V7.75H2.2525C2.11923 7.75 1.99142 7.69706 1.89718 7.60282C1.80294 7.50858 1.75 7.38077 1.75 7.2475V2.2525C1.75 2.11923 1.80294 1.99142 1.89718 1.89718C1.99142 1.80294 2.11923 1.75 2.2525 1.75H7.2475C7.38077 1.75 7.50858 1.80294 7.60282 1.89718C7.69706 1.99142 7.75 2.11923 7.75 2.2525V4.75H7C6.40326 4.75 5.83097 4.98705 5.40901 5.40901C4.98705 5.83097 4.75 6.40326 4.75 7Z" fill="#FF0000"/>
</svg>
