<svg width="20" height="20" viewBox="0 0 20 20" fill="none" xmlns="http://www.w3.org/2000/svg">
<path fill-rule="evenodd" clip-rule="evenodd" d="M17.8791 4.51333C17.9583 4.63351 17.9935 4.77732 17.979 4.92049C17.9644 5.06366 17.9008 5.19741 17.7991 5.29917L10.1382 12.9592C10.0599 13.0375 9.96209 13.0936 9.85491 13.1217L6.66408 13.955C6.5586 13.9825 6.44777 13.982 6.34257 13.9534C6.23738 13.9248 6.14148 13.8692 6.06441 13.7922C5.98733 13.7151 5.93175 13.6192 5.90319 13.514C5.87462 13.4088 5.87407 13.298 5.90158 13.1925L6.73491 10.0025C6.75924 9.90674 6.80513 9.81781 6.86908 9.7425L14.5582 2.05833C14.6754 1.94129 14.8343 1.87555 14.9999 1.87555C15.1655 1.87555 15.3244 1.94129 15.4416 2.05833L17.7991 4.415C17.829 4.445 17.8558 4.47795 17.8791 4.51333ZM16.4732 4.85667L14.9999 3.38417L7.90158 10.4825L7.38075 12.4767L9.37491 11.9558L16.4732 4.85667Z" fill="black"/>
<path d="M16.3676 14.3C16.5954 12.3533 16.6681 10.3916 16.5851 8.43334C16.5833 8.3872 16.591 8.34119 16.6078 8.29817C16.6246 8.25516 16.6501 8.21607 16.6826 8.18333L17.5026 7.36334C17.525 7.3408 17.5535 7.32522 17.5845 7.31846C17.6156 7.31169 17.6479 7.31404 17.6777 7.32522C17.7074 7.3364 17.7333 7.35593 17.7522 7.38146C17.7711 7.407 17.7823 7.43746 17.7843 7.46917C17.9386 9.7952 17.8801 12.1305 17.6093 14.4458C17.4126 16.1308 16.0593 17.4517 14.3818 17.6392C11.4696 17.9617 8.53067 17.9617 5.61846 17.6392C3.94179 17.4517 2.58763 16.1308 2.39096 14.4458C2.04546 11.492 2.04546 8.50799 2.39096 5.55417C2.58763 3.86917 3.94096 2.54834 5.61846 2.36084C7.82877 2.11574 10.0557 2.05636 12.276 2.18334C12.3077 2.18562 12.3382 2.19696 12.3637 2.21601C12.3892 2.23507 12.4088 2.26104 12.42 2.29085C12.4312 2.32067 12.4337 2.35307 12.427 2.38423C12.4204 2.41539 12.405 2.444 12.3826 2.46667L11.5551 3.29334C11.5227 3.32563 11.484 3.35094 11.4415 3.3677C11.3989 3.38447 11.3534 3.39235 11.3076 3.39084C9.45492 3.32786 7.60009 3.39887 5.75763 3.60334C5.21924 3.66293 4.71667 3.90227 4.33109 4.28271C3.94551 4.66315 3.69944 5.16247 3.63263 5.7C3.2985 8.55693 3.2985 11.4431 3.63263 14.3C3.69944 14.8375 3.94551 15.3369 4.33109 15.7173C4.71667 16.0977 5.21924 16.3371 5.75763 16.3967C8.55346 16.7092 11.4468 16.7092 14.2435 16.3967C14.7818 16.3371 15.2844 16.0977 15.67 15.7173C16.0556 15.3369 16.3008 14.8375 16.3676 14.3Z" fill="black"/>
</svg>
