<svg width="17" height="16" viewBox="0 0 17 16" fill="none" xmlns="http://www.w3.org/2000/svg">
<path d="M8.999 5.68661C8.94987 5.64083 8.91047 5.58563 8.88314 5.5243C8.85581 5.46297 8.84112 5.39676 8.83993 5.32962C8.83875 5.26249 8.8511 5.1958 8.87625 5.13354C8.90139 5.07128 8.93882 5.01473 8.9863 4.96725C9.03378 4.91977 9.09034 4.88234 9.1526 4.85719C9.21486 4.83204 9.28154 4.81969 9.34868 4.82088C9.41581 4.82206 9.48202 4.83676 9.54335 4.86409C9.60469 4.89141 9.65989 4.93081 9.70566 4.97994L12.3723 7.64661C12.466 7.74036 12.5186 7.86744 12.5186 7.99994C12.5186 8.13244 12.466 8.25952 12.3723 8.35327L9.70566 11.0199C9.65989 11.0691 9.60469 11.1085 9.54335 11.1358C9.48202 11.1631 9.41581 11.1778 9.34868 11.179C9.28154 11.1802 9.21486 11.1678 9.1526 11.1427C9.09034 11.1175 9.03378 11.0801 8.9863 11.0326C8.93882 10.9852 8.90139 10.9286 8.87625 10.8663C8.8511 10.8041 8.83875 10.7374 8.83993 10.6703C8.84112 10.6031 8.85581 10.5369 8.88314 10.4756C8.91047 10.4142 8.94987 10.359 8.999 10.3133L10.8123 8.49994H4.35233C4.21972 8.49994 4.09254 8.44726 3.99877 8.35349C3.90501 8.25972 3.85233 8.13255 3.85233 7.99994C3.85233 7.86733 3.90501 7.74015 3.99877 7.64639C4.09254 7.55262 4.21972 7.49994 4.35233 7.49994L10.8123 7.49994L8.999 5.68661Z" fill="#0D0C0C"/>
</svg>
