<svg width="46" height="46" viewBox="0 0 46 46" fill="none" xmlns="http://www.w3.org/2000/svg">
<rect width="40" height="40" rx="10" fill="white"/>
<path fill-rule="evenodd" clip-rule="evenodd" d="M10 0C4.47715 0 0 4.47715 0 10V30C0 35.5228 4.47715 40 10 40H29.3736C29.1307 39.2096 29 38.3701 29 37.5C29 32.8056 32.8056 29 37.5 29C38.3701 29 39.2096 29.1307 40 29.3736V10C40 4.47715 35.5228 0 30 0H10Z" fill="black"/>
<circle cx="37.5" cy="37.5" r="7.5" fill="#FF0000"/>
<path d="M39.574 38.2328C39.6197 38.1835 39.6748 38.144 39.7361 38.1165C39.7973 38.089 39.8635 38.0742 39.9306 38.0729C39.9978 38.0715 40.0645 38.0837 40.1268 38.1087C40.1891 38.1337 40.2458 38.171 40.2933 38.2184C40.3409 38.2657 40.3785 38.3222 40.4038 38.3844C40.4291 38.4466 40.4416 38.5132 40.4406 38.5804C40.4396 38.6475 40.425 38.7138 40.3978 38.7752C40.3707 38.8366 40.3314 38.8918 40.2824 38.9377L37.6221 41.6108C37.5286 41.7046 37.4016 41.7575 37.2691 41.7578C37.1366 41.7582 37.0094 41.7059 36.9154 41.6125L34.2424 38.9522C34.1932 38.9065 34.1536 38.8514 34.1262 38.7902C34.0987 38.7289 34.0838 38.6627 34.0825 38.5956C34.0811 38.5285 34.0933 38.4617 34.1183 38.3994C34.1433 38.3371 34.1806 38.2805 34.228 38.2329C34.2753 38.1853 34.3318 38.1477 34.394 38.1224C34.4562 38.0971 34.5229 38.0846 34.59 38.0856C34.6571 38.0867 34.7234 38.1012 34.7848 38.1284C34.8462 38.1555 34.9015 38.1948 34.9474 38.2438L36.765 40.0528L36.7496 33.5928C36.7493 33.4602 36.8016 33.3329 36.8952 33.2389C36.9887 33.1449 37.1158 33.092 37.2484 33.0916C37.381 33.0913 37.5083 33.1437 37.6023 33.2372C37.6963 33.3308 37.7493 33.4578 37.7496 33.5904L37.765 40.0504L39.574 38.2328Z" fill="white"/>
</svg>
