<svg width="24" height="22" viewBox="0 0 24 22" fill="none" xmlns="http://www.w3.org/2000/svg">
<path d="M17.5 5.5C17.5 9.538 17.944 13.562 18.822 17.5M18.822 17.5H18.5C17.837 17.5 17.2011 17.7634 16.7322 18.2322C16.2634 18.7011 16 19.337 16 20V20.5M18.822 17.5C18.9548 18.095 19.0975 18.6877 19.25 19.278L19.5 20.25V20.5H4.5V20.25L4.751 19.278C4.90315 18.6877 5.0455 18.095 5.178 17.5M6.5 5.5C6.5 9.538 6.056 13.562 5.178 17.5M5.178 17.5H5.5C6.16304 17.5 6.79893 17.7634 7.26777 18.2322C7.73661 18.7011 8 19.337 8 20V20.5M4 5.5H20M4 9.5H0.5V1.5H23.5V9.5H20M12 13.5C11.4696 13.5 10.9609 13.2893 10.5858 12.9142C10.2107 12.5391 10 12.0304 10 11.5C10 10.9696 10.2107 10.4609 10.5858 10.0858C10.9609 9.71071 11.4696 9.5 12 9.5C12.5304 9.5 13.0391 9.71071 13.4142 10.0858C13.7893 10.4609 14 10.9696 14 11.5C14 12.0304 13.7893 12.5391 13.4142 12.9142C13.0391 13.2893 12.5304 13.5 12 13.5Z" stroke="#FF0000" stroke-width="1.5"/>
</svg>
