<svg width="46" height="46" viewBox="0 0 46 46" fill="none" xmlns="http://www.w3.org/2000/svg">
<rect width="40" height="40" rx="10" fill="white"/>
<path fill-rule="evenodd" clip-rule="evenodd" d="M10 0C4.47715 0 0 4.47715 0 10V30C0 35.5228 4.47715 40 10 40H29.3736C29.1307 39.2096 29 38.3701 29 37.5C29 32.8056 32.8056 29 37.5 29C38.3701 29 39.2096 29.1307 40 29.3736V10C40 4.47715 35.5228 0 30 0H10Z" fill="black"/>
<circle cx="37.5" cy="37.5" r="7.5" fill="#00FF66"/>
<path d="M34.9389 36.2927C34.8935 36.3421 34.8385 36.3818 34.7774 36.4095C34.7162 36.4372 34.6501 36.4523 34.583 36.454C34.5158 36.4556 34.4491 36.4436 34.3867 36.4189C34.3242 36.3941 34.2674 36.357 34.2197 36.3098C34.1719 36.2627 34.1341 36.2063 34.1086 36.1442C34.0831 36.0821 34.0703 36.0155 34.0711 35.9484C34.0718 35.8812 34.0861 35.8149 34.1131 35.7534C34.14 35.6919 34.1791 35.6365 34.2279 35.5904L36.8779 32.9072C36.9711 32.813 37.0978 32.7596 37.2303 32.7588C37.3628 32.758 37.4903 32.8098 37.5846 32.9028L40.2678 35.5529C40.3172 35.5983 40.3569 35.6533 40.3846 35.7144C40.4123 35.7756 40.4275 35.8417 40.4291 35.9088C40.4307 35.976 40.4187 36.0427 40.394 36.1051C40.3692 36.1676 40.3321 36.2244 40.2849 36.2721C40.2378 36.3199 40.1814 36.3577 40.1193 36.3832C40.0572 36.4087 39.9906 36.4215 39.9235 36.4207C39.8563 36.42 39.79 36.4057 39.7285 36.3787C39.667 36.3518 39.6116 36.3127 39.5655 36.2639L37.7409 34.4619L37.7811 40.9218C37.7819 41.0544 37.7301 41.1819 37.6369 41.2762C37.5437 41.3706 37.4168 41.424 37.2842 41.4249C37.1516 41.4257 37.0241 41.3738 36.9298 41.2806C36.8354 41.1874 36.782 41.0606 36.7811 40.928L36.741 34.4681L34.9389 36.2927Z" fill="white"/>
</svg>
